<?xml version="1.0" encoding="utf-8"?>
<!-- Generator: Adobe Illustrator 25.2.0, SVG Export Plug-In . SVG Version: 6.00 Build 0)  -->
<svg version="1.1" id="Layer_1" xmlns="http://www.w3.org/2000/svg" xmlns:xlink="http://www.w3.org/1999/xlink" x="0px" y="0px"
	 viewBox="0 0 512 512" style="enable-background:new 0 0 512 512;" xml:space="preserve" fill="#4419e0">
<style type="text/css">
	.st0{fill:#E81A46;}
</style>
<g>
	<path class="st0" d="M441.5,6H336.1c-35.5,0-64.5,28.9-64.5,64.5v105.5c0,35.5,28.9,64.5,64.5,64.5h105.5
		c35.5,0,64.5-28.9,64.5-64.5V70.5C506,34.9,477.1,6,441.5,6z M474.8,175.9c0,8.6-7,15.6-15.6,15.6s-15.6-7-15.6-15.6V70.5
		c0-1.1-0.9-2-2-2c-8.6,0-15.6-7-15.6-15.6s7-15.6,15.6-15.6c18.3,0,33.2,14.9,33.2,33.2V175.9z"/>
	<path class="st0" d="M175.9,6H70.5C34.9,6,6,34.9,6,70.5v105.5c0,35.5,28.9,64.5,64.5,64.5h105.5c35.5,0,64.5-28.9,64.5-64.5V70.5
		C240.4,34.9,211.5,6,175.9,6z M209.1,175.9c0,8.6-7,15.6-15.6,15.6s-15.6-7-15.6-15.6V70.5c0-1.1-0.9-2-2-2
		c-8.6,0-15.6-7-15.6-15.6s7-15.6,15.6-15.6c18.3,0,33.2,14.9,33.2,33.2V175.9z"/>
	<path class="st0" d="M175.9,271.6H70.5C34.9,271.6,6,300.5,6,336.1v105.5C6,477.1,34.9,506,70.5,506h105.5
		c35.5,0,64.5-28.9,64.5-64.5V336.1C240.4,300.5,211.5,271.6,175.9,271.6z M209.1,441.5c0,8.6-7,15.6-15.6,15.6s-15.6-7-15.6-15.6
		V336.1c0-1.1-0.9-2-2-2c-8.6,0-15.6-7-15.6-15.6s7-15.6,15.6-15.6c18.3,0,33.2,14.9,33.2,33.2V441.5z"/>
	<path class="st0" d="M388.8,271.6c-64.6,0-117.2,52.6-117.2,117.2S324.2,506,388.8,506S506,453.4,506,388.8
		S453.4,271.6,388.8,271.6z M470,425.9c-2.7,5.7-8.3,9-14.2,9c-2.2,0-4.5-0.5-6.6-1.5c-7.8-3.6-11.2-12.9-7.6-20.8
		c6.2-13.2,6.8-28.1,1.8-41.8c-5-13.7-15-24.7-28.3-30.9c-7.8-3.6-11.2-12.9-7.6-20.8c3.6-7.8,12.9-11.2,20.8-7.6
		c20.8,9.7,36.6,26.9,44.4,48.5C480.7,381.7,479.7,405.1,470,425.9L470,425.9z"/>
</g>
</svg>
