<?xml version="1.0" encoding="iso-8859-1"?>
<!-- Generator: Adobe Illustrator 16.0.0, SVG Export Plug-In . SVG Version: 6.00 Build 0)  -->
<!DOCTYPE svg PUBLIC "-//W3C//DTD SVG 1.1//EN" "http://www.w3.org/Graphics/SVG/1.1/DTD/svg11.dtd">
<svg version="1.1" id="Capa_1" xmlns="http://www.w3.org/2000/svg" xmlns:xlink="http://www.w3.org/1999/xlink" x="0px" y="0px"
	 width="564.295px" height="564.295px" viewBox="0 0 564.295 564.295" style="enable-background:new 0 0 564.295 564.295;"
	 xml:space="preserve">
<g>
	<g>
		<path d="M330.303,192.621c-22.812,0-41.371,18.559-41.371,41.371c0,22.812,18.559,41.372,41.371,41.372
			s41.371-18.559,41.371-41.372C371.674,211.18,353.115,192.621,330.303,192.621z"/>
		<path d="M426.613,481.553c-22.812,0-41.371,18.559-41.371,41.371s18.559,41.371,41.371,41.371s41.371-18.559,41.371-41.371
			S449.422,481.553,426.613,481.553z"/>
		<path d="M330.303,96.31c-22.812,0-41.371,18.559-41.371,41.372c0,22.812,18.559,41.371,41.371,41.371s41.371-18.559,41.371-41.371
			C371.674,114.869,353.115,96.31,330.303,96.31z"/>
		<path d="M330.303,288.932c-22.812,0-41.371,18.559-41.371,41.371s18.559,41.371,41.371,41.371s41.371-18.559,41.371-41.371
			S353.115,288.932,330.303,288.932z"/>
		<path d="M330.303,385.242c-22.812,0-41.371,18.559-41.371,41.371s18.559,41.371,41.371,41.371s41.371-18.559,41.371-41.371
			S353.115,385.242,330.303,385.242z"/>
		<path d="M426.613,385.242c-22.812,0-41.371,18.559-41.371,41.371s18.559,41.371,41.371,41.371s41.371-18.559,41.371-41.371
			S449.422,385.242,426.613,385.242z"/>
		<path d="M96.311,282.146c0,22.812,18.559,41.371,41.371,41.371c22.812,0,41.372-18.559,41.372-41.371
			c0-22.812-18.559-41.371-41.372-41.371C114.87,240.776,96.311,259.335,96.311,282.146z"/>
		<path d="M233.992,192.621c-22.812,0-41.371,18.559-41.371,41.371c0,22.812,18.559,41.372,41.371,41.372
			s41.371-18.559,41.371-41.372C275.363,211.18,256.805,192.621,233.992,192.621z"/>
		<path d="M233.992,288.932c-22.812,0-41.371,18.559-41.371,41.371s18.559,41.371,41.371,41.371s41.371-18.559,41.371-41.371
			S256.805,288.932,233.992,288.932z"/>
		<path d="M426.613,288.932c-22.812,0-41.371,18.559-41.371,41.371s18.559,41.371,41.371,41.371s41.371-18.559,41.371-41.371
			S449.422,288.932,426.613,288.932z"/>
		<path d="M426.613,192.621c-22.812,0-41.371,18.559-41.371,41.371c0,22.812,18.559,41.372,41.371,41.372
			s41.371-18.559,41.371-41.372C467.984,211.18,449.422,192.621,426.613,192.621z"/>
		<path d="M426.613,96.31c-22.812,0-41.371,18.559-41.371,41.372c0,22.812,18.559,41.371,41.371,41.371s41.371-18.559,41.371-41.371
			C467.984,114.869,449.422,96.31,426.613,96.31z"/>
		<path d="M426.613,0c-22.812,0-41.371,18.559-41.371,41.371c0,22.812,18.559,41.371,41.371,41.371s41.371-18.559,41.371-41.371
			C467.984,18.559,449.422,0,426.613,0z"/>
	</g>
</g>
<g>
</g>
<g>
</g>
<g>
</g>
<g>
</g>
<g>
</g>
<g>
</g>
<g>
</g>
<g>
</g>
<g>
</g>
<g>
</g>
<g>
</g>
<g>
</g>
<g>
</g>
<g>
</g>
<g>
</g>
</svg>
